<svg width="54" height="43" viewBox="0 0 54 43" fill="none" xmlns="http://www.w3.org/2000/svg">
<path fill-rule="evenodd" clip-rule="evenodd" d="M26.8539 37.5021C37.6968 37.5021 46.4867 30.4713 46.4867 21.7984C46.4867 13.1255 37.6968 6.09467 26.8539 6.09467C16.0111 6.09467 7.22119 13.1255 7.22119 21.7984C7.22119 30.4713 16.0111 37.5021 26.8539 37.5021ZM27.8539 12.2017C27.8539 11.6494 27.4062 11.2017 26.8539 11.2017C26.3017 11.2017 25.8539 11.6494 25.8539 12.2017V21.5484C25.8539 22.2387 26.4136 22.7984 27.1039 22.7984H34.4889C35.0412 22.7984 35.4889 22.3507 35.4889 21.7984C35.4889 21.2461 35.0412 20.7984 34.4889 20.7984H27.8539V12.2017Z" fill="#222222"/>
</svg>
