<svg width="49" height="32" viewBox="0 0 49 32" fill="none" xmlns="http://www.w3.org/2000/svg">
<path d="M4.53906 10.6378C4.53906 8.7522 4.53906 7.80939 5.12485 7.2236C5.71064 6.63782 6.65344 6.63782 8.53906 6.63782H40.5317C42.4173 6.63782 43.3601 6.63782 43.9459 7.2236C44.5317 7.80939 44.5317 8.7522 44.5317 10.6378V12.181C44.5317 12.6524 44.5317 12.8881 44.3852 13.0346C44.2388 13.181 44.0031 13.181 43.5317 13.181H5.53906C5.06766 13.181 4.83196 13.181 4.68551 13.0346C4.53906 12.8881 4.53906 12.6524 4.53906 12.181V10.6378Z" fill="#222222"/>
<path d="M4.53906 24.8847C4.53906 26.7703 4.53906 27.7131 5.12485 28.2989C5.71064 28.8847 6.65344 28.8847 8.53906 28.8847H40.5317C42.4173 28.8847 43.3601 28.8847 43.9459 28.2989C44.5317 27.7131 44.5317 26.7703 44.5317 24.8847V16.7983C44.5317 16.3269 44.5317 16.0912 44.3852 15.9447C44.2388 15.7983 44.0031 15.7983 43.5317 15.7983H5.53906C5.06766 15.7983 4.83196 15.7983 4.68551 15.9447C4.53906 16.0912 4.53906 16.3269 4.53906 16.7983V24.8847Z" fill="#222222"/>
<path d="M14.5371 4.02051L14.5371 7.94643" stroke="#222222" stroke-width="2" stroke-linecap="round"/>
<path d="M34.5334 4.02051L34.5334 7.94643" stroke="#222222" stroke-width="2" stroke-linecap="round"/>
</svg>
